<svg xmlns="http://www.w3.org/2000/svg" viewBox="0 0 191.95 50.72"><defs><style>.cls-1{fill:#cf9167;}.cls-2{fill:#141414;}</style></defs><g id="Logo"><g id="Teamilk"><path class="cls-1" d="M-253,58.32h-.48V88.08h4.8V90h-16.8V88.08h4.8V58.32h-.48a10.41,10.41,0,0,0-4.34.62,3.77,3.77,0,0,0-1.61,2.79l-1,4.75H-270l-1.3-8.06a2,2,0,0,1,.43-1.42,1.64,1.64,0,0,1,.94-.53,11.75,11.75,0,0,1,1.56-.07h22.46a11.75,11.75,0,0,1,1.56.07,1.64,1.64,0,0,1,.94.53,2,2,0,0,1,.43,1.42l-1.3,8.06h-1.87l-1-4.75a3.77,3.77,0,0,0-1.61-2.79A10.41,10.41,0,0,0-253,58.32Z" transform="translate(271.28 -40)"/><path class="cls-1" d="M-229.06,76.54a6.71,6.71,0,0,0,1.7-4.23A5.08,5.08,0,0,0-228.3,69a3.44,3.44,0,0,0-2.83-1.15q-1.89,0-3.62,2.69a13.18,13.18,0,0,0-1.73,7.2A14.05,14.05,0,0,0-234.85,85a5.15,5.15,0,0,0,4.66,2.73,10.1,10.1,0,0,0,7.82-3.6L-221,85a12.36,12.36,0,0,1-4.32,4.15,11.85,11.85,0,0,1-6,1.56A11.7,11.7,0,0,1-240.51,87a13.08,13.08,0,0,1-3.41-9.09,12.19,12.19,0,0,1,3.62-9q3.63-3.62,10.06-3.62a10.15,10.15,0,0,1,6.62,2,6.17,6.17,0,0,1,2.4,5,7.64,7.64,0,0,1-2.66,5.59,9.72,9.72,0,0,1-7,2.57,12,12,0,0,1-2.88-.34l-.1-1.15A6.74,6.74,0,0,0-229.06,76.54Z" transform="translate(271.28 -40)"/><path class="cls-1" d="M-192.13,66V84.67a3,3,0,0,0,.63,2,2.34,2.34,0,0,0,1.92.75,5,5,0,0,0,3-1.4l.87,1.16q-3.84,3.5-7.68,3.5c-3,0-4.92-1.42-5.62-4.27a8,8,0,0,1-7.34,4.27q-5.52,0-8.4-3.58A14.06,14.06,0,0,1-217.66,78a13.54,13.54,0,0,1,3.09-9.14c2.07-2.4,4.95-3.6,8.67-3.6a7.47,7.47,0,0,1,6.57,3.41V66Zm-16.75,4.7a16.49,16.49,0,0,0-1.34,7.3,16.49,16.49,0,0,0,1.34,7.3,4.35,4.35,0,0,0,4.1,2.68,4.6,4.6,0,0,0,4.23-2.71A15.43,15.43,0,0,0-199.09,78a15.43,15.43,0,0,0-1.46-7.27A4.6,4.6,0,0,0-204.78,68,4.35,4.35,0,0,0-208.88,70.7Z" transform="translate(271.28 -40)"/><path class="cls-2" d="M-187.66,66.86a11.45,11.45,0,0,1,4.44-.86,11.32,11.32,0,0,1,3.93.58A13.06,13.06,0,0,1-176,68.4,10.3,10.3,0,0,1-172.52,66a11.65,11.65,0,0,1,4.25-.7q4.89,0,6.53,3.74a11.56,11.56,0,0,1,3.76-2.9,12.35,12.35,0,0,1,4.95-.84,6.65,6.65,0,0,1,4.94,1.9,7,7,0,0,1,1.9,5.16V84.67a3.09,3.09,0,0,0,.62,2,2.37,2.37,0,0,0,1.92.75,5,5,0,0,0,3-1.4l.86,1.16q-3.84,3.5-7.68,3.5-5.89,0-5.9-7.06V71.33a3,3,0,0,0-.87-2.31,3.31,3.31,0,0,0-2.37-.81,4.52,4.52,0,0,0-3,1.29,4.28,4.28,0,0,0-1.46,3.36V90h-7.2V71.33a3,3,0,0,0-.87-2.31,3.31,3.31,0,0,0-2.37-.81,4.52,4.52,0,0,0-3,1.29,4.28,4.28,0,0,0-1.46,3.36V90h-7.2V67.92a9.67,9.67,0,0,0-3.84.72Z" transform="translate(271.28 -40)"/><path class="cls-2" d="M-133.95,65.28c3,0,4.51,1.3,4.51,3.89v15.5a3.09,3.09,0,0,0,.62,2,2.37,2.37,0,0,0,1.92.75,5,5,0,0,0,3-1.4l.86,1.16q-3.84,3.5-7.68,3.5-5.89,0-5.9-7.06V67.58a7.41,7.41,0,0,0-4,2.36l-1.3-1.49a10.12,10.12,0,0,1,3.53-2.31A12,12,0,0,1-133.95,65.28Zm-1.8-4.73a3.66,3.66,0,0,1-1.13-2.71,3.66,3.66,0,0,1,1.13-2.71A3.69,3.69,0,0,1-133,54a3.71,3.71,0,0,1,2.71,1.13,3.69,3.69,0,0,1,1.13,2.71,3.69,3.69,0,0,1-1.13,2.71A3.71,3.71,0,0,1-133,61.68,3.69,3.69,0,0,1-135.75,60.55Z" transform="translate(271.28 -40)"/><path class="cls-2" d="M-122.89,54.14a11.29,11.29,0,0,1,4.22-.86,6.4,6.4,0,0,1,3.44.84,2.45,2.45,0,0,1,1.34,2.09V84.67a3.09,3.09,0,0,0,.62,2,2.37,2.37,0,0,0,1.92.75,5,5,0,0,0,3-1.4l.86,1.16q-3.84,3.5-7.68,3.5-5.9,0-5.9-7.06V55.58a7.45,7.45,0,0,0-4,2.36l-1.3-1.49A10.22,10.22,0,0,1-122.89,54.14Z" transform="translate(271.28 -40)"/><path class="cls-2" d="M-98.34,56.21V68.64q2.59-3.36,8-3.36a7.7,7.7,0,0,1,5,1.54,4.74,4.74,0,0,1,1.92,3.86,6.64,6.64,0,0,1-1.39,4.15,10.22,10.22,0,0,1-3.79,3l2.88,7.49a4.77,4.77,0,0,0,1,1.7,1.89,1.89,0,0,0,1.34.46,5.19,5.19,0,0,0,3.27-1.4l.86,1.16a11.77,11.77,0,0,1-7.94,3.5q-4.11,0-5.45-3.46l-3.6-9.21a8.32,8.32,0,0,0,4.39-2.59,5.85,5.85,0,0,0,1.75-3.8A3.39,3.39,0,0,0-91.09,69a3.35,3.35,0,0,0-2.3-.81A4.2,4.2,0,0,0-97,70.06a8.56,8.56,0,0,0-1.32,5.06V90h-7.2V55.58a7.45,7.45,0,0,0-4,2.36l-1.3-1.49a10.22,10.22,0,0,1,3.53-2.31,11.3,11.3,0,0,1,4.23-.86,6.39,6.39,0,0,1,3.43.84A2.45,2.45,0,0,1-98.34,56.21Z" transform="translate(271.28 -40)"/></g><path class="cls-1" d="M-188.84,46.51a.91.91,0,0,0-1-.38c-.54.07-1.09.12-1.63.2a25.14,25.14,0,0,0-8.24,2.5,7.7,7.7,0,0,0-3.52,3.5,13.61,13.61,0,0,0-1.18,6v.81A23.33,23.33,0,0,1-200.83,56a11.06,11.06,0,0,1,4.11-2,17.67,17.67,0,0,0-8.89,10.32,23.24,23.24,0,0,0-10.74-13.6,21.56,21.56,0,0,1,9.63,7.29c0-.3.05-.53.07-.76a19.62,19.62,0,0,0-.42-6.3,10.39,10.39,0,0,0-2.7-5,16,16,0,0,0-4.28-2.8A36.56,36.56,0,0,0-225.12,40a1,1,0,0,0-1.17.58V41l.45.75a16.67,16.67,0,0,1,2.2,6.86c.12,1.23.19,2.46.37,3.68a8.82,8.82,0,0,0,2.36,4.91,12,12,0,0,0,5.36,3.1,25.24,25.24,0,0,0,5.65,1,.7.7,0,0,1,.65.42c.32.67.69,1.32,1,2A20.63,20.63,0,0,1-206.53,68a1.89,1.89,0,0,1,.78-.17A1.85,1.85,0,0,1-205,68c.18-.74.36-1.48.57-2.22a10.87,10.87,0,0,1,1.78-3.63.66.66,0,0,1,.55-.29,18.67,18.67,0,0,0,5.65-.92,7.23,7.23,0,0,0,5.07-5.49c.21-1,.31-2,.48-3a13,13,0,0,1,2-4.93A.86.86,0,0,0-188.84,46.51Z" transform="translate(271.28 -40)"/></g></svg>